PathFileType	4	(X/Y/Z)	./resultDataOpenSim/trcMotMarkerGrf/sub09/qtm-13-04.trc
DataRate	CameraRate	NumFrames	NumMarkers	Units	OrigDataRate	OrigDataStartFrame	OrigNumFrames
250.000000	250.000000	14	24	m	250.000000	65	512
Frame#	Time	L.Toe.Tip			R.Toe.Tip			L.Ankle.Lat			R.Ankle.Lat			L.Ankle.Med			R.Ankle.Med			L.Heel			R.Heel			L.Knee.Lat			R.Knee.Lat			L.Knee.Med			R.Knee.Med			L.Thigh.Upper			R.Thigh.Upper			L.ASIS			R.ASIS			V.Sacral			L.Acromium			R.Acromium			C7			L.Elbow			R.Elbow			L.Wrist.Lat			R.Wrist.Lat
		X1	Y1	Z1	X2	Y2	Z2	X3	Y3	Z3	X4	Y4	Z4	X5	Y5	Z5	X6	Y6	Z6	X7	Y7	Z7	X8	Y8	Z8	X9	Y9	Z9	X10	Y10	Z10	X11	Y11	Z11	X12	Y12	Z12	X13	Y13	Z13	X14	Y14	Z14	X15	Y15	Z15	X16	Y16	Z16	X17	Y17	Z17	X18	Y18	Z18	X19	Y19	Z19	X20	Y20	Z20	X21	Y21	Z21	X22	Y22	Z22	X23	Y23	Z23	X24	Y24	Z24

65	0.256	-1.2576244	0.098566315	-0.090751841	-0.59080506	0.038941184	0.016435323	-1.2834466	0.25310625	-0.13069138	-0.73504253	0.053546729	0.058067873	-1.2545453	0.23942265	-0.03898827	-0.73014046	0.097560769	-0.032968049	-1.3471257	0.29670685	-0.079225636	-0.80683314	0.031399983	0.012204152	-0.91276639	0.42970576	-0.16506968	-0.68516311	0.50422838	0.11611457	-0.90075289	0.41349636	-0.038849269	-0.70684513	0.49391636	-0.0098648189	-0.9139702	0.83785897	-0.17693571	-0.86811141	0.86331582	0.19356184	-0.82162857	0.92582518	-0.12815867	-0.79945771	0.94996547	0.11090984	-0.97924562	0.99334232	0.0048774835	-0.80370884	1.3865143	-0.16880872	-0.82922371	1.3989312	0.1597128	-0.87973987	1.4474327	-0.0077084703	-0.95677159	1.0477536	-0.23969214	-0.99414813	1.0795187	0.24582719	-0.77898119	0.84467722	-0.23829245	-0.88427644	0.83119608	0.28554472
66	0.26	-1.2423754	0.099881822	-0.092485408	-0.59085453	0.038970649	0.016465589	-1.269506	0.25424757	-0.13064097	-0.73514097	0.053567786	0.058075249	-1.2406042	0.24021011	-0.03893644	-0.7300804	0.097599683	-0.03300476	-1.3338214	0.29709939	-0.078919412	-0.80689403	0.031420836	0.012144765	-0.90008806	0.43117787	-0.1646984	-0.68268184	0.50395219	0.11629314	-0.88744737	0.41489588	-0.038531926	-0.70399572	0.49372219	-0.0098056246	-0.90739753	0.83936519	-0.17710854	-0.86347287	0.86510978	0.19350455	-0.81593356	0.92761163	-0.12801611	-0.79338904	0.9517189	0.11090179	-0.97350843	0.99509705	0.0051764803	-0.79841302	1.388237	-0.16896891	-0.82296776	1.4006303	0.15963408	-0.87389815	1.4491278	-0.007615371	-0.95151686	1.0495853	-0.23893553	-0.98758813	1.0809326	0.24643851	-0.7754863	0.84517829	-0.23850693	-0.87575577	0.83311729	0.28501537
67	0.264	-1.2268206	0.10099309	-0.094114981	-0.59090892	0.039002876	0.016515252	-1.2554704	0.25511239	-0.13058886	-0.73524474	0.053586321	0.058079473	-1.2265102	0.24075613	-0.038841302	-0.73004384	0.097656215	-0.033026037	-1.3204488	0.297152	-0.078526341	-0.80694615	0.031442983	0.012076269	-0.88743679	0.43269835	-0.16419293	-0.68041001	0.50371189	0.1164287	-0.87420562	0.41649266	-0.038192076	-0.70130675	0.49355637	-0.0097031768	-0.90109543	0.8409877	-0.17723707	-0.85963806	0.86683847	0.19333797	-0.8102758	0.92948643	-0.12782094	-0.78728794	0.95348256	0.11093397	-0.96781402	0.99688602	0.0054942168	-0.79316043	1.3900337	-0.16912938	-0.81676315	1.4023786	0.15956514	-0.86814626	1.4508458	-0.0075610736	-0.94632049	1.0515062	-0.23817512	-0.98104092	1.0823872	0.24700199	-0.77204945	0.84578095	-0.23871426	-0.86730618	0.83511212	0.28449141
68	0.268	-1.2109805	0.10192378	-0.095620532	-0.59096894	0.03903715	0.01658251	-1.2413309	0.25571944	-0.13052244	-0.73534659	0.053604991	0.058081816	-1.2123181	0.2410728	-0.038700981	-0.73001392	0.097729833	-0.033017796	-1.3070396	0.2968582	-0.078026785	-0.80699057	0.031469406	0.01200117	-0.87461436	0.43436537	-0.16363614	-0.67837221	0.50348566	0.11656061	-0.86103169	0.41828225	-0.037829551	-0.69891016	0.49344177	-0.0094578709	-0.8947524	0.84271247	-0.17725285	-0.85591682	0.86851833	0.19315567	-0.80464672	0.93144233	-0.1275872	-0.78114155	0.95522974	0.11101398	-0.96215541	0.9987194	0.0058539606	-0.78794996	1.3918953	-0.16928566	-0.81060896	1.4041684	0.15950603	-0.86252595	1.4526055	-0.0075345676	-0.94119817	1.0534839	-0.23746505	-0.97449782	1.0838793	0.24751664	-0.76866023	0.84649185	-0.23891459	-0.85890261	0.83717641	0.28397529
69	0.272	-1.1949105	0.1026746	-0.096940269	-0.59103612	0.039071811	0.016663953	-1.2270851	0.25606727	-0.13043994	-0.73543937	0.053620892	0.058090145	-1.1981839	0.24116009	-0.038489163	-0.72998575	0.097818412	-0.032974865	-1.2936397	0.2961994	-0.077356771	-0.80703142	0.031504751	0.011926409	-0.86159905	0.43628663	-0.16314007	-0.67646695	0.50328684	0.11676667	-0.84788259	0.42025612	-0.037449074	-0.69697224	0.49338644	-0.0089404697	-0.88805822	0.84453969	-0.17709759	-0.85142727	0.87019355	0.19308198	-0.79902159	0.93347284	-0.12733494	-0.77496262	0.95694155	0.11114493	-0.9565514	1.0005787	0.0062753457	-0.78278351	1.3938064	-0.16943174	-0.80450764	1.4059979	0.15945186	-0.85702094	1.4544217	-0.0075176582	-0.93615527	1.055505	-0.23681507	-0.96795503	1.0854019	0.24798961	-0.76531416	0.84731574	-0.23910603	-0.85053421	0.83930168	0.28346932
70	0.276	-1.1786494	0.10322187	-0.098035125	-0.59111277	0.039105886	0.016754792	-1.2127374	0.25613624	-0.13034315	-0.73551898	0.053629692	0.058109082	-1.184284	0.24099832	-0.038166876	-0.7299696	0.09791849	-0.03290106	-1.2802727	0.29516564	-0.076483439	-0.8070725	0.031551976	0.01185937	-0.84849677	0.43850025	-0.16276932	-0.6745698	0.50312499	0.11710146	-0.83467844	0.42241358	-0.037071006	-0.6955189	0.49337815	-0.0081313598	-0.88117177	0.84645512	-0.17688053	-0.84591785	0.87189197	0.19315792	-0.79338316	0.93557259	-0.12706808	-0.76880455	0.95861824	0.11131921	-0.95100077	1.0024384	0.0067600834	-0.77765696	1.3957505	-0.1695659	-0.79847032	1.4078697	0.15940215	-0.85149362	1.4562769	-0.0075063088	-0.93118538	1.0575668	-0.23619775	-0.96142026	1.0869484	0.2484333	-0.762008	0.84824264	-0.23928683	-0.84220501	0.84148037	0.28297065
71	0.28	-1.1621781	0.10353932	-0.098940348	-0.59120222	0.039138938	0.016852714	-1.1982797	0.25590814	-0.13022986	-0.73559972	0.053631203	0.058131242	-1.170547	0.24058025	-0.037746928	-0.7299819	0.098025012	-0.032802445	-1.2668807	0.29378234	-0.075566651	-0.80711605	0.031610059	0.011803329	-0.83538559	0.44096915	-0.16251101	-0.67268009	0.50297759	0.11754271	-0.82139714	0.42475905	-0.036718271	-0.6943209	0.49339037	-0.0072245865	-0.87452032	0.84842353	-0.17678765	-0.83978701	0.87360831	0.19333023	-0.7877347	0.93773092	-0.1267814	-0.76279269	0.96026781	0.11151528	-0.94544829	1.0042805	0.0072340849	-0.77255777	1.3977173	-0.16969149	-0.79249631	1.4097823	0.159359	-0.84575459	1.4581124	-0.0075221689	-0.92627701	1.0596647	-0.23558599	-0.9549104	1.0885203	0.24886372	-0.75873636	0.84925248	-0.23946005	-0.83392717	0.84370936	0.28247614
72	0.284	-1.1454588	0.10361561	-0.099730202	-0.59130757	0.039169966	0.016960139	-1.1836965	0.25538193	-0.13009978	-0.73573691	0.053632335	0.05813296	-1.1564433	0.23994329	-0.03739379	-0.73003628	0.098132307	-0.032685035	-1.2533013	0.29211051	-0.075001376	-0.80716342	0.03167294	0.011757184	-0.82233468	0.4435983	-0.16227114	-0.6708688	0.50282389	0.1179953	-0.80813978	0.42729625	-0.036407558	-0.69303669	0.49339558	-0.0065110513	-0.86828167	0.85041919	-0.1768737	-0.8335299	0.87531835	0.19353426	-0.78208935	0.93993399	-0.12647901	-0.75711973	0.96188947	0.1117106	-0.93976945	1.0060873	0.0074929622	-0.76747104	1.3997042	-0.16981479	-0.78656879	1.4117276	0.15931952	-0.83977971	1.4598844	-0.007581176	-0.92141866	1.0617923	-0.23496628	-0.94843173	1.0901188	0.24929135	-0.75549431	0.85033024	-0.23963431	-0.82571004	0.84598307	0.28198676
73	0.288	-1.1284973	0.10346364	-0.10043793	-0.59142924	0.039198213	0.017081503	-1.1689833	0.25457039	-0.12995824	-0.73602735	0.053646091	0.05808038	-1.1413293	0.23915016	-0.037335143	-0.73013352	0.098236214	-0.032554228	-1.2393804	0.29019854	-0.075106339	-0.80721447	0.031731386	0.011721404	-0.80943777	0.44628327	-0.16192865	-0.66915417	0.50266205	0.11835218	-0.79507554	0.43004715	-0.036152224	-0.69143977	0.49337738	-0.0061756516	-0.86228536	0.85244171	-0.17704679	-0.82742912	0.87699637	0.19373863	-0.77644932	0.94217223	-0.12616949	-0.7518878	0.9634767	0.11189833	-0.93379311	1.0078454	0.0072545866	-0.76238863	1.4017079	-0.16993901	-0.78067959	1.4136967	0.1592785	-0.83378971	1.4616197	-0.0076587906	-0.91660383	1.0639447	-0.23433218	-0.94196329	1.0917323	0.2497121	-0.75227797	0.85147098	-0.23981784	-0.81755183	0.84828746	0.28150662
74	0.292	-1.1113193	0.1031271	-0.10104081	-0.59156329	0.039225701	0.017216673	-1.1541485	0.25348612	-0.12981423	-0.73652136	0.053681673	0.057963385	-1.1252892	0.23821875	-0.037554268	-0.73025371	0.098335355	-0.03241354	-1.2251506	0.28802233	-0.075709908	-0.80726696	0.031780369	0.011702142	-0.7967487	0.44898815	-0.16143706	-0.6674989	0.50249005	0.11857488	-0.78238168	0.43303744	-0.035898857	-0.68949792	0.49333333	-0.0062122059	-0.85626661	0.85450963	-0.17718101	-0.82158298	0.87862276	0.19392826	-0.77080016	0.94444066	-0.12585113	-0.74691074	0.96503163	0.11209361	-0.92746505	1.009562	0.0064335904	-0.75731081	1.4037151	-0.17005785	-0.77483565	1.415683	0.15923844	-0.82801087	1.4633806	-0.0077134339	-0.91183395	1.0661158	-0.23368146	-0.93547125	1.0933428	0.2501144	-0.74908311	0.85267089	-0.24001444	-0.80944041	0.85060634	0.28104218
75	0.296	-1.0938648	0.10266531	-0.10151995	-0.59170171	0.039255683	0.017358222	-1.1392022	0.25213595	-0.12967378	-0.73709194	0.053730334	0.057828038	-1.1091478	0.23710277	-0.037767758	-0.73036791	0.098430796	-0.032265864	-1.2108013	0.28550702	-0.076305083	-0.80731717	0.031823489	0.011704854	-0.78427871	0.45174208	-0.16086083	-0.66586582	0.50231568	0.11871868	-0.77020682	0.43622592	-0.03547283	-0.68736301	0.49326938	-0.0064205151	-0.85004091	0.85665413	-0.17718197	-0.81600728	0.88018386	0.19409273	-0.76513022	0.94673152	-0.12551684	-0.74184411	0.96656708	0.11232118	-0.92101713	1.0112891	0.0054419536	-0.7522398	1.405709	-0.17015932	-0.76903946	1.4176761	0.15920986	-0.82244289	1.4651903	-0.0077312437	-0.90711924	1.0682961	-0.23302169	-0.92894137	1.0949443	0.25049409	-0.74590464	0.8539184	-0.24022636	-0.80135919	0.85292847	0.28059759
76	0.3	-1.0759758	0.10211985	-0.10190298	-0.59183368	0.03928805	0.017495457	-1.1241525	0.25052779	-0.12952871	-0.73747926	0.053763857	0.057728796	-1.0934543	0.23576185	-0.037775889	-0.73045997	0.098524373	-0.032115658	-1.1964575	0.28261367	-0.07660772	-0.80735758	0.031868403	0.011721513	-0.77202087	0.45457119	-0.16030348	-0.66423546	0.50217081	0.11887454	-0.75851887	0.43950521	-0.034742004	-0.68525212	0.49319082	-0.0065427334	-0.84356548	0.85889193	-0.17701807	-0.81068003	0.88167297	0.19423282	-0.75944323	0.94902917	-0.12516602	-0.73652735	0.96809151	0.1125899	-0.91480595	1.013093	0.0049208242	-0.74717376	1.4076779	-0.17023772	-0.76328	1.4196573	0.1591943	-0.81694487	1.467017	-0.0077292126	-0.90248812	1.0704757	-0.23237834	-0.92239042	1.096541	0.25085617	-0.74273922	0.85519616	-0.24046116	-0.79329436	0.85524709	0.28017145
77	0.304	-1.0576216	0.10148961	-0.10222525	-0.59194823	0.039319639	0.017619664	-1.1090086	0.24867433	-0.12936289	-0.73749309	0.053745437	0.057645269	-1.0781014	0.23420413	-0.037608269	-0.73052739	0.098616454	-0.03196825	-1.1820986	0.27936451	-0.076674983	-0.8073746	0.031922991	0.011724468	-0.75991541	0.45747156	-0.15979458	-0.66262355	0.50208729	0.1191037	-0.74708184	0.44279545	-0.033806107	-0.68330645	0.49309728	-0.0064782137	-0.83697102	0.86119023	-0.1767465	-0.80554041	0.88309589	0.19435548	-0.75374663	0.95131367	-0.12480218	-0.73103239	0.9695956	0.11288603	-0.9089652	1.0149817	0.0050965713	-0.74210558	1.4096161	-0.17030094	-0.75753999	1.421609	0.1591742	-0.81142391	1.4688148	-0.0077294285	-0.89798935	1.0726505	-0.23179234	-0.91584525	1.0981306	0.25120769	-0.7395849	0.85648991	-0.24073136	-0.78524257	0.85755746	0.27976091
78	0.308	-1.0390075	0.10074888	-0.10248845	-0.59203847	0.039347279	0.017727136	-1.0937747	0.24658952	-0.12916834	-0.73713113	0.053653305	0.057515816	-1.0628035	0.23245925	-0.037369595	-0.73056783	0.098704729	-0.031829205	-1.167657	0.27580091	-0.076638283	-0.80735716	0.031992588	0.011682564	-0.74788289	0.46042731	-0.15927503	-0.6611161	0.50208017	0.11942564	-0.73571026	0.44609442	-0.032876495	-0.68163736	0.49298329	-0.0062854454	-0.83045413	0.8634937	-0.1764887	-0.80050721	0.88446793	0.19446622	-0.74804235	0.95356738	-0.12442522	-0.72547011	0.97106139	0.1131939	-0.90336811	1.0168985	0.0056708348	-0.7370267	1.4115214	-0.17036272	-0.75179795	1.4235266	0.15913167	-0.80586863	1.4705615	-0.0077397615	-0.89363652	1.0748226	-0.23128759	-0.9093174	1.0997014	0.25155537	-0.73643142	0.85779595	-0.24104044	-0.77720928	0.8598526	0.27936131
